<svg width="46" height="54" viewBox="0 0 46 54" fill="none" xmlns="http://www.w3.org/2000/svg">
<path d="M28.5938 22.875C28.5938 21.3583 27.9912 19.9037 26.9188 18.8312C25.8463 17.7588 24.3917 17.1562 22.875 17.1562C21.3583 17.1562 19.9037 17.7588 18.8312 18.8312C17.7588 19.9037 17.1562 21.3583 17.1562 22.875C17.1562 24.3917 17.7588 25.8463 18.8312 26.9188C19.9037 27.9912 21.3583 28.5938 22.875 28.5938C24.3917 28.5938 25.8463 27.9912 26.9188 26.9188C27.9912 25.8463 28.5938 24.3917 28.5938 22.875ZM45.75 22.875C45.75 33.8321 33.9427 45.811 27.2937 51.6899C26.0779 52.7756 24.505 53.3757 22.875 53.3757C21.245 53.3757 19.6721 52.7756 18.4563 51.6899C11.8073 45.811 0 33.8321 0 22.875C-4.47629e-08 19.871 0.591679 16.8964 1.74126 14.1211C2.89083 11.3458 4.57579 8.82407 6.69993 6.69993C8.82407 4.57579 11.3458 2.89083 14.1211 1.74126C16.8964 0.591679 19.871 0 22.875 0C25.879 0 28.8536 0.591679 31.6289 1.74126C34.4042 2.89083 36.9259 4.57579 39.0501 6.69993C41.1742 8.82407 42.8592 11.3458 44.0087 14.1211C45.1583 16.8964 45.75 19.871 45.75 22.875ZM41.9375 22.875C41.9375 17.8193 39.9291 12.9707 36.3542 9.39578C32.7793 5.82086 27.9307 3.8125 22.875 3.8125C17.8193 3.8125 12.9707 5.82086 9.39578 9.39578C5.82086 12.9707 3.8125 17.8193 3.8125 22.875C3.8125 27.0993 6.15719 32.0059 9.79813 36.9164C13.359 41.7126 17.7548 45.9787 20.9802 48.8343C21.4991 49.3047 22.1746 49.5653 22.875 49.5653C23.5754 49.5653 24.2509 49.3047 24.7698 48.8343C27.9952 45.9787 32.3948 41.7164 35.9519 36.9164C39.5928 32.0059 41.9375 27.0993 41.9375 22.875Z" fill="#434348"/>
</svg>
