<svg width="40" height="62" viewBox="0 0 40 62" fill="none" xmlns="http://www.w3.org/2000/svg">
<path d="M31.625 3.875C32.6527 3.875 33.6383 4.28326 34.365 5.00996C35.0917 5.73666 35.5 6.72229 35.5 7.75V54.25C35.5 55.2777 35.0917 56.2633 34.365 56.99C33.6383 57.7167 32.6527 58.125 31.625 58.125H8.375C7.34729 58.125 6.36167 57.7167 5.63496 56.99C4.90826 56.2633 4.5 55.2777 4.5 54.25V7.75C4.5 6.72229 4.90826 5.73666 5.63496 5.00996C6.36167 4.28326 7.34729 3.875 8.375 3.875H31.625ZM8.375 0C6.31957 0 4.34833 0.816516 2.89492 2.26992C1.44152 3.72333 0.625 5.69457 0.625 7.75V54.25C0.625 56.3054 1.44152 58.2767 2.89492 59.7301C4.34833 61.1835 6.31957 62 8.375 62H31.625C33.6804 62 35.6517 61.1835 37.1051 59.7301C38.5585 58.2767 39.375 56.3054 39.375 54.25V7.75C39.375 5.69457 38.5585 3.72333 37.1051 2.26992C35.6517 0.816516 33.6804 0 31.625 0L8.375 0Z" fill="#434348"/>
<path d="M20 54.25C21.0277 54.25 22.0133 53.8417 22.74 53.115C23.4667 52.3883 23.875 51.4027 23.875 50.375C23.875 49.3473 23.4667 48.3617 22.74 47.635C22.0133 46.9083 21.0277 46.5 20 46.5C18.9723 46.5 17.9867 46.9083 17.26 47.635C16.5333 48.3617 16.125 49.3473 16.125 50.375C16.125 51.4027 16.5333 52.3883 17.26 53.115C17.9867 53.8417 18.9723 54.25 20 54.25Z" fill="#434348"/>
</svg>
